<svg xmlns="http://www.w3.org/2000/svg" width="91.221" height="42.836" viewBox="0 0 91.221 42.836">
  <g id="logo" transform="translate(-381.112 -247.705)">
    <path id="Path_1" data-name="Path 1" d="M525.422,261.986a14.28,14.28,0,1,0-14.28,14.28c.209,0,.418,0,.627,0a13.97,13.97,0,0,0,13.653-14.28Zm-14.28,9.262c-5,0-8.748-4.208-8.748-9.26,0-5.112,3.749-9.26,8.748-9.26s8.749,4.148,8.749,9.26h0C519.894,267.044,516.142,271.247,511.142,271.247Z" transform="translate(-84.509 -0.001)" fill="#8bced6" fill-rule="evenodd"/>
    <path id="Path_2" data-name="Path 2" d="M538.867,279.779l-.03,5.149a.9.9,0,0,1-.261.629l-2.09,2.1a.9.9,0,0,0,0,1.263l.8.8a.9.9,0,0,0,1.271.006l2.968-2.936a.9.9,0,0,0,.267-.639v-6.37a.9.9,0,0,0-.9-.9h-1.124A.9.9,0,0,0,538.867,279.779Z" transform="translate(-113.25 -22.765)" fill="#8bced6" fill-rule="evenodd"/>
    <path id="Path_3" data-name="Path 3" d="M396.02,247.705a13.217,13.217,0,0,0-8.912,3.367l-1.29,1.168v-2.129a2.3,2.3,0,0,0-2.237-2.356h-.115a2.3,2.3,0,0,0-2.354,2.24c0,.035,0,.07,0,.105v38.1a2.353,2.353,0,0,0,4.706,0V274.5c.228-.611.863-1.33,2.623-.622a13.438,13.438,0,0,0,7.578,2.287c7.627,0,13.6-6.251,13.6-14.229s-5.975-14.229-13.6-14.229Zm-.689,23.606c-4.885,0-8.749-3.962-8.749-9.227v-.4a8.834,8.834,0,0,1,8.749-8.831c4.885,0,8.749,3.962,8.749,9.226S400.217,271.311,395.332,271.311Z" transform="translate(0 0)" fill="#8bced6" fill-rule="evenodd"/>
    <path id="Path_4" data-name="Path 4" d="M628.377,247.705a13.218,13.218,0,0,0-8.912,3.367l-1.29,1.168v-2.129a2.3,2.3,0,0,0-2.237-2.356h-.115a2.3,2.3,0,0,0-2.354,2.24c0,.035,0,.07,0,.105v38.1a2.353,2.353,0,0,0,4.706,0V274.5c.228-.611.863-1.33,2.623-.622a13.44,13.44,0,0,0,7.578,2.287c7.626,0,13.6-6.251,13.6-14.229s-5.974-14.229-13.6-14.229Zm-.689,23.606c-4.885,0-8.749-3.962-8.749-9.227v-.4a8.833,8.833,0,0,1,8.749-8.831c4.885,0,8.749,3.962,8.749,9.226S632.574,271.311,627.689,271.311Z" transform="translate(-169.644 0)" fill="#8bced6" fill-rule="evenodd"/>
    <path id="Path_5" data-name="Path 5" d="M420.8,361.834h-7.655a.925.925,0,0,0-.329,0,.937.937,0,1,0,.329,1.846H415.8v9.171a1.191,1.191,0,0,0,2.352,0V363.68H420.8a.922.922,0,0,0,.329,0,.937.937,0,1,0-.329-1.846Z" transform="translate(-22.584 -83.315)" fill="#9d9896" fill-rule="evenodd"/>
    <path id="Path_6" data-name="Path 6" d="M453.588,373.24a1.111,1.111,0,0,0-1.273.92v7.068a1.108,1.108,0,0,0,2.193,0v-7.068A1.111,1.111,0,0,0,453.588,373.24Z" transform="translate(-51.985 -91.643)" fill="#9d9896" fill-rule="evenodd"/>
    <path id="Path_7" data-name="Path 7" d="M452.616,359.881a1.312,1.312,0,0,0-1.085,1.506,1.208,1.208,0,0,0,1.295,1.1,1.352,1.352,0,0,0,.212-.017,1.313,1.313,0,0,0-.422-2.591Z" transform="translate(-51.401 -81.888)" fill="#9d9896" fill-rule="evenodd"/>
    <path id="Path_8" data-name="Path 8" d="M470.274,361.309a1.111,1.111,0,0,0-1.273.92v10.29a1.108,1.108,0,0,0,2.193,0v-10.29A1.11,1.11,0,0,0,470.274,361.309Z" transform="translate(-64.168 -82.933)" fill="#9d9896" fill-rule="evenodd"/>
    <path id="Path_9" data-name="Path 9" d="M484.411,380.627l-3.049-3.068,2.89-2.933a.723.723,0,0,0,.239-.559l0-.019a.937.937,0,0,0-1.035-.829,1.027,1.027,0,0,0-.757.3L479.268,377a.983.983,0,0,0-.3.644,1.091,1.091,0,0,0,.3.695l3.469,3.492a1.125,1.125,0,0,0,.817.339,1.055,1.055,0,0,0,1.117-.932A.945.945,0,0,0,484.411,380.627Z" transform="translate(-71.445 -91.634)" fill="#9d9896" fill-rule="evenodd"/>
    <path id="Path_10" data-name="Path 10" d="M504.806,362.842a1.1,1.1,0,0,1,1.175-.983h3.389c2.611,0,4.385,1.593,4.385,3.559a3.108,3.108,0,0,1-2.591,3.034l-.259.017,3.707,3.764a.856.856,0,0,1,.278.661,1.081,1.081,0,0,1-1.155.983,1.216,1.216,0,0,1-.917-.373l-4.663-4.712a1.173,1.173,0,0,1-.358-.777.982.982,0,0,1,1.056-.9h.438a1.73,1.73,0,1,0,0-3.407h-2.137v9.171a1.191,1.191,0,0,1-2.351,0Z" transform="translate(-90.305 -83.342)" fill="#9d9896" fill-rule="evenodd"/>
  </g>
</svg>
