<svg xmlns="http://www.w3.org/2000/svg" width="28" height="21.387" viewBox="0 0 28 21.387">
  <path id="Path_1960" data-name="Path 1960" d="M162.146,55.773l0,0c.017.017.035.033.053.048l.028.021.033.024.033.02.032.019.035.017.034.016.034.013.037.013.035.009.039.01.04.006.035,0c.025,0,.051,0,.076,0s.051,0,.076,0l.035,0,.04-.006.039-.01.035-.009.037-.013.034-.013.034-.016.035-.017.032-.019.033-.02.033-.024.028-.021q.028-.023.053-.048l0,0,9.919-9.919a.775.775,0,1,0-1.1-1.1l-8.6,8.6V28.775a.775.775,0,1,0-1.55,0V53.354l-8.6-8.6a.775.775,0,0,0-1.1,1.1Z" transform="translate(56 -152) rotate(90)" fill="#fff"/>
</svg>
