<svg xmlns="http://www.w3.org/2000/svg" width="21.5" height="21.5" viewBox="0 0 21.5 21.5">
  <g id="Group_9876" data-name="Group 9876" transform="translate(-1800.75 -213.75)">
    <circle id="Ellipse_113" data-name="Ellipse 113" cx="10" cy="10" r="10" transform="translate(1801.5 214.5)" fill="none" stroke="#646d82" stroke-linecap="round" stroke-linejoin="round" stroke-width="1.5"/>
    <path id="Path_532" data-name="Path 532" d="M.392-8.976A3.238,3.238,0,0,1,2.6-8.25a2.582,2.582,0,0,1,.834,2.057,2.528,2.528,0,0,1-.854,2.057A3.573,3.573,0,0,1,.285-3.4v1.358H-1.5V-4.633h.766A3.585,3.585,0,0,0,.957-4.963a1.26,1.26,0,0,0,.605-1.217A1.231,1.231,0,0,0,1.226-7.1a1.231,1.231,0,0,0-.9-.329,1.341,1.341,0,0,0-.982.356,1.234,1.234,0,0,0-.363.921H-2.808A2.615,2.615,0,0,1-2.458-7.6,2.615,2.615,0,0,1-1.349-8.606,3.823,3.823,0,0,1,.392-8.976ZM.433-.9V1.081H-1.611V-.9Z" transform="translate(1811.592 228.518)" fill="#646d82"/>
  </g>
</svg>
